<?xml version="1.0" encoding="utf-8"?>
<!-- Generator: Adobe Illustrator 25.0.1, SVG Export Plug-In . SVG Version: 6.00 Build 0)  -->
<svg version="1.1" id="Ebene_1" xmlns="http://www.w3.org/2000/svg" xmlns:xlink="http://www.w3.org/1999/xlink" x="0px" y="0px"
	 viewBox="0 0 1365.6 769" style="enable-background:new 0 0 1365.6 769;" xml:space="preserve">
<style type="text/css">
	.st0{fill:#D5C7B9;stroke:#020203;stroke-miterlimit:10;}
	.st1{fill:#020203;}
</style>
<rect x="0.5" y="0.5" class="st0" width="1364.6" height="768"/>
<path class="st1" d="M204.72,236.21c0,35.75-31,49.5-58.25,49.5h-22.5v47c0.25,18.25,1.5,27.5,15.75,27.5v1.25H69.47v-1.25
	c14.25,0,15.75-9.25,15.75-27.5v-117.5c0-18.5-1.5-27.5-15.75-27.5v-1.25h79.5C173.22,186.46,204.72,200.46,204.72,236.21z
	 M163.47,236.21c0-23.25-6-48.5-20.5-48.5h-3.25c-14.25,0-15.5,9-15.75,27.5v69.25c7,0,14.25,0,19,0
	C161.72,284.46,163.47,259.21,163.47,236.21z"/>
</svg>
