<?xml version="1.0" encoding="utf-8"?>
<!-- Generator: Adobe Illustrator 25.0.1, SVG Export Plug-In . SVG Version: 6.00 Build 0)  -->
<svg version="1.1" id="Ebene_1" xmlns="http://www.w3.org/2000/svg" xmlns:xlink="http://www.w3.org/1999/xlink" x="0px" y="0px"
	 viewBox="0 0 595.28 841.89" style="enable-background:new 0 0 595.28 841.89;" xml:space="preserve">
<style type="text/css">
	.st0{fill:#D5C7B9;stroke:#020203;stroke-miterlimit:10;}
	.st1{fill:#D5C7B9;}
	.st2{fill:#020203;}
</style>
<rect x="-1149.3" y="-7372.5" class="st0" width="273.2" height="768"/>
<rect x="-876.11" y="-7372.5" class="st1" width="271.61" height="766"/>
<rect x="-604.3" y="-7372.5" class="st0" width="273.2" height="768"/>
<rect x="-331.1" y="-7372.5" class="st0" width="273.2" height="768"/>
<rect x="-57.9" y="-7372.5" class="st0" width="273.2" height="768"/>
<path class="st2" d="M-945.08-7136.79c0,35.75-31,49.5-58.25,49.5h-22.5v47c0.25,18.25,1.5,27.5,15.75,27.5v1.25h-70.25v-1.25
	c14.25,0,15.75-9.25,15.75-27.5v-117.5c0-18.5-1.5-27.5-15.75-27.5v-1.25h79.5C-976.58-7186.54-945.08-7172.54-945.08-7136.79z
	 M-986.33-7136.79c0-23.25-6-48.5-20.5-48.5h-3.25c-14.25,0-15.5,9-15.75,27.5v69.25c7,0,14.25,0,19,0
	C-988.08-7088.54-986.33-7113.79-986.33-7136.79z"/>
<rect x="354.7" y="-7372.5" class="st0" width="273.2" height="768"/>
<rect x="627.89" y="-7372.5" class="st1" width="271.61" height="766"/>
<rect x="899.7" y="-7372.5" class="st0" width="273.2" height="768"/>
<rect x="1172.9" y="-7372.5" class="st0" width="273.2" height="768"/>
<rect x="1446.1" y="-7372.5" class="st0" width="273.2" height="768"/>
<path class="st2" d="M558.92-7136.79c0,35.75-31,49.5-58.25,49.5h-22.5v47c0.25,18.25,1.5,27.5,15.75,27.5v1.25h-70.25v-1.25
	c14.25,0,15.75-9.25,15.75-27.5v-117.5c0-18.5-1.5-27.5-15.75-27.5v-1.25h79.5C527.42-7186.54,558.92-7172.54,558.92-7136.79z
	 M517.67-7136.79c0-23.25-6-48.5-20.5-48.5h-3.25c-14.25,0-15.5,9-15.75,27.5v69.25c7,0,14.25,0,19,0
	C515.92-7088.54,517.67-7113.79,517.67-7136.79z"/>
<path class="st2" d="M852.92-6925.79v1.25h-74v-1.25c12.25,0,14-4.75,7-23c-2.5-7-9-24-16-42.5h-48.25c-3.75,9.5-6.25,16-7,17.75
	c-7.75,21-5.75,47.75,11,47.75v1.25h-53.25v-1.25c16-3,27.75-14,37.5-38.75c8.5-21.75,52.75-135,52.75-135h5.5c0,0,49,124,55.5,140
	C830.42-6943.54,837.17-6925.79,852.92-6925.79z M769.42-6992.29c-10.5-27.25-21.75-57-23.5-61.25c-8.25,21-17.5,45-24,61.25H769.42
	z"/>
<rect x="354.7" y="-6504.5" class="st0" width="273.2" height="768"/>
<rect x="627.89" y="-6504.5" class="st1" width="271.61" height="766"/>
<rect x="899.7" y="-6504.5" class="st0" width="273.2" height="768"/>
<rect x="1172.9" y="-6504.5" class="st0" width="273.2" height="768"/>
<rect x="1446.1" y="-6504.5" class="st0" width="273.2" height="768"/>
<path class="st2" d="M558.92-6268.79c0,35.75-31,49.5-58.25,49.5h-22.5v47c0.25,18.25,1.5,27.5,15.75,27.5v1.25h-70.25v-1.25
	c14.25,0,15.75-9.25,15.75-27.5v-117.5c0-18.5-1.5-27.5-15.75-27.5v-1.25h79.5C527.42-6318.54,558.92-6304.54,558.92-6268.79z
	 M517.67-6268.79c0-23.25-6-48.5-20.5-48.5h-3.25c-14.25,0-15.5,9-15.75,27.5v69.25c7,0,14.25,0,19,0
	C515.92-6220.54,517.67-6245.79,517.67-6268.79z"/>
<path class="st2" d="M852.92-6057.79v1.25h-74v-1.25c12.25,0,14-4.75,7-23c-2.5-7-9-24-16-42.5h-48.25c-3.75,9.5-6.25,16-7,17.75
	c-7.75,21-5.75,47.75,11,47.75v1.25h-53.25v-1.25c16-3,27.75-14,37.5-38.75c8.5-21.75,52.75-135,52.75-135h5.5c0,0,49,124,55.5,140
	C830.42-6075.54,837.17-6057.79,852.92-6057.79z M769.42-6124.29c-10.5-27.25-21.75-57-23.5-61.25c-8.25,21-17.5,45-24,61.25H769.42
	z"/>
<path class="st2" d="M1101.17-6290.79h-1.25c-7-16.25-17.75-37.25-42.25-37.5c-13.75,0.25-15,9.25-15.25,27.5v117.5
	c0.25,18.25,1.5,27.5,15.75,27.5v1.25h-70.25v-1.25c14.25,0,15.75-9.25,15.75-27.5v-117.5c0-18.25-1.5-27.25-15.25-27.5
	c-24.5,0.25-35,21.25-42.25,37.5h-1.25l4.75-38.75h146.75L1101.17-6290.79z"/>
<rect x="354.7" y="-5662.5" class="st0" width="273.2" height="768"/>
<rect x="627.89" y="-5662.5" class="st1" width="271.61" height="766"/>
<rect x="899.7" y="-5662.5" class="st0" width="273.2" height="768"/>
<rect x="1172.9" y="-5662.5" class="st0" width="273.2" height="768"/>
<rect x="1446.1" y="-5662.5" class="st0" width="273.2" height="768"/>
<path class="st2" d="M558.92-5426.79c0,35.75-31,49.5-58.25,49.5h-22.5v47c0.25,18.25,1.5,27.5,15.75,27.5v1.25h-70.25v-1.25
	c14.25,0,15.75-9.25,15.75-27.5v-117.5c0-18.5-1.5-27.5-15.75-27.5v-1.25h79.5C527.42-5476.54,558.92-5462.54,558.92-5426.79z
	 M517.67-5426.79c0-23.25-6-48.5-20.5-48.5h-3.25c-14.25,0-15.5,9-15.75,27.5v69.25c7,0,14.25,0,19,0
	C515.92-5378.54,517.67-5403.79,517.67-5426.79z"/>
<path class="st2" d="M852.92-5215.79v1.25h-74v-1.25c12.25,0,14-4.75,7-23c-2.5-7-9-24-16-42.5h-48.25c-3.75,9.5-6.25,16-7,17.75
	c-7.75,21-5.75,47.75,11,47.75v1.25h-53.25v-1.25c16-3,27.75-14,37.5-38.75c8.5-21.75,52.75-135,52.75-135h5.5c0,0,49,124,55.5,140
	C830.42-5233.54,837.17-5215.79,852.92-5215.79z M769.42-5282.29c-10.5-27.25-21.75-57-23.5-61.25c-8.25,21-17.5,45-24,61.25H769.42
	z"/>
<path class="st2" d="M1101.17-5448.79h-1.25c-7-16.25-17.75-37.25-42.25-37.5c-13.75,0.25-15,9.25-15.25,27.5v117.5
	c0.25,18.25,1.5,27.5,15.75,27.5v1.25h-70.25v-1.25c14.25,0,15.75-9.25,15.75-27.5v-117.5c0-18.25-1.5-27.25-15.25-27.5
	c-24.5,0.25-35,21.25-42.25,37.5h-1.25l4.75-38.75h146.75L1101.17-5448.79z"/>
<path class="st2" d="M1370.92-5130.79h-1.25c-7-16.25-17.75-37.25-42.25-37.5c-13.75,0.25-15,9.25-15.25,27.5v117.5
	c0.25,18.25,1.5,27.5,15.75,27.5v1.25h-70.25v-1.25c14.25,0,15.75-9.25,15.75-27.5v-117.5c0-18.25-1.5-27.25-15.25-27.5
	c-24.5,0.25-35,21.25-42.25,37.5h-1.25l4.75-38.75h146.75L1370.92-5130.79z"/>
<rect x="380.7" y="-4840.5" class="st0" width="273.2" height="768"/>
<rect x="653.89" y="-4840.5" class="st1" width="271.61" height="766"/>
<rect x="925.7" y="-4840.5" class="st0" width="273.2" height="768"/>
<rect x="1198.9" y="-4840.5" class="st0" width="273.2" height="768"/>
<rect x="1472.1" y="-4840.5" class="st0" width="273.2" height="768"/>
<path class="st2" d="M584.92-4604.79c0,35.75-31,49.5-58.25,49.5h-22.5v47c0.25,18.25,1.5,27.5,15.75,27.5v1.25h-70.25v-1.25
	c14.25,0,15.75-9.25,15.75-27.5v-117.5c0-18.5-1.5-27.5-15.75-27.5v-1.25h79.5C553.42-4654.54,584.92-4640.54,584.92-4604.79z
	 M543.67-4604.79c0-23.25-6-48.5-20.5-48.5h-3.25c-14.25,0-15.5,9-15.75,27.5v69.25c7,0,14.25,0,19,0
	C541.92-4556.54,543.67-4581.79,543.67-4604.79z"/>
<path class="st2" d="M878.92-4393.79v1.25h-74v-1.25c12.25,0,14-4.75,7-23c-2.5-7-9-24-16-42.5h-48.25c-3.75,9.5-6.25,16-7,17.75
	c-7.75,21-5.75,47.75,11,47.75v1.25h-53.25v-1.25c16-3,27.75-14,37.5-38.75c8.5-21.75,52.75-135,52.75-135h5.5c0,0,49,124,55.5,140
	C856.42-4411.54,863.17-4393.79,878.92-4393.79z M795.42-4460.29c-10.5-27.25-21.75-57-23.5-61.25c-8.25,21-17.5,45-24,61.25H795.42
	z"/>
<path class="st2" d="M1127.17-4626.79h-1.25c-7-16.25-17.75-37.25-42.25-37.5c-13.75,0.25-15,9.25-15.25,27.5v117.5
	c0.25,18.25,1.5,27.5,15.75,27.5v1.25h-70.25v-1.25c14.25,0,15.75-9.25,15.75-27.5v-117.5c0-18.25-1.5-27.25-15.25-27.5
	c-24.5,0.25-35,21.25-42.25,37.5h-1.25l4.75-38.75h146.75L1127.17-4626.79z"/>
<path class="st2" d="M1396.92-4308.79h-1.25c-7-16.25-17.75-37.25-42.25-37.5c-13.75,0.25-15,9.25-15.25,27.5v117.5
	c0.25,18.25,1.5,27.5,15.75,27.5v1.25h-70.25v-1.25c14.25,0,15.75-9.25,15.75-27.5v-117.5c0-18.25-1.5-27.25-15.25-27.5
	c-24.5,0.25-35,21.25-42.25,37.5h-1.25l4.75-38.75h146.75L1396.92-4308.79z"/>
<path class="st2" d="M1665.17-4536.54v1.25c-16,2.75-30.75,16.75-38.75,38.75c-9.25,24.75-22.5,59.25-22.5,59.25v47
	c0.25,18.25,1.5,27.5,15.75,27.5v1.25h-70.25v-1.25c14.25,0,15.75-9.25,15.75-27.5v-43.5c-10.75-20-27.5-50.75-33.25-62.25
	c-8-15.25-22.75-39.25-38.25-39.25v-1.25h72.75v1.25c-9.75,0-6.5,13.75-2.5,21.75c5.25,10.25,35.5,68.75,39,75.75
	c2-5.5,15.25-40.25,18.5-49.75c8.25-23.25,6-47.75-10.75-47.75v-1.25H1665.17z"/>
</svg>
