<?xml version="1.0" encoding="utf-8"?>
<!-- Generator: Adobe Illustrator 25.0.1, SVG Export Plug-In . SVG Version: 6.00 Build 0)  -->
<svg version="1.1" id="Ebene_1" xmlns="http://www.w3.org/2000/svg" xmlns:xlink="http://www.w3.org/1999/xlink" x="0px" y="0px"
	 viewBox="0 0 1365.6 769" style="enable-background:new 0 0 1365.6 769;" xml:space="preserve">
<style type="text/css">
	.st0{fill:#D5C7B9;stroke:#020203;stroke-miterlimit:10;}
	.st1{fill:#020203;}
</style>
<path class="st1" d="M499.42,447.21v1.25h-74v-1.25c12.25,0,14-4.75,7-23c-2.5-7-9-24-16-42.5h-48.25c-3.75,9.5-6.25,16-7,17.75
	c-7.75,21-5.75,47.75,11,47.75v1.25h-53.25v-1.25c16-3,27.75-14,37.5-38.75c8.5-21.75,52.75-135,52.75-135h5.5c0,0,49,124,55.5,140
	C476.92,429.46,483.67,447.21,499.42,447.21z M415.92,380.71c-10.5-27.25-21.75-57-23.5-61.25c-8.25,21-17.5,45-24,61.25H415.92z"/>
</svg>
