<?xml version="1.0" encoding="utf-8"?>
<!-- Generator: Adobe Illustrator 25.0.1, SVG Export Plug-In . SVG Version: 6.00 Build 0)  -->
<svg version="1.1" id="Ebene_1" xmlns="http://www.w3.org/2000/svg" xmlns:xlink="http://www.w3.org/1999/xlink" x="0px" y="0px"
	 viewBox="0 0 1365.6 769" style="enable-background:new 0 0 1365.6 769;" xml:space="preserve">
<style type="text/css">
	.st0{fill:#D5C7B9;stroke:#020203;stroke-miterlimit:10;}
	.st1{fill:#020203;}
</style>
<path class="st1" d="M1311.67,297v1.25c-16,2.75-30.75,16.75-38.75,38.75c-9.25,24.75-22.5,59.25-22.5,59.25v47
	c0.25,18.25,1.5,27.5,15.75,27.5V472h-70.25v-1.25c14.25,0,15.75-9.25,15.75-27.5v-43.5c-10.75-20-27.5-50.75-33.25-62.25
	c-8-15.25-22.75-39.25-38.25-39.25V297h72.75v1.25c-9.75,0-6.5,13.75-2.5,21.75c5.25,10.25,35.5,68.75,39,75.75
	c2-5.5,15.25-40.25,18.5-49.75c8.25-23.25,6-47.75-10.75-47.75V297H1311.67z"/>
</svg>
